<svg id="Layer_1" xmlns="http://www.w3.org/2000/svg" viewBox="0 0 363 80.85"><style>.st0{fill:#ffffff}</style><path class="st0" d="M38.33 3.76c-.24-.03-.71.97-.99 1.6-2.96 6.44-5.86 14.1-8.69 22.98-2.39 7.91-4.76 15.8-7.14 23.65-1.74-6.56-3.45-13.16-5.11-19.78-2.13-7.67-4.35-14.14-6.67-19.41-1.17-.88-2.4-1.79-3.75-2.4-1.18-.53-2.49-.74-3.77-.54-.47.07-2.52.88-2.17 1.64 3.15 6.82 6.91 18.05 10.07 31.12 3.35 13.72 6.28 23.56 8.79 29.55 1.42.97 2.57 1.44 3.47 1.44.78 0 1.46-.32 2.03-.95 1.68-4.32 3.42-10.65 5.22-19.03 1.87-8.76 3.47-15.03 4.82-18.83 4.64-12.87 8.22-21.65 10.72-26.36.32-.65.71-1.57 1.02-2.14 0 0-2.26-1.25-3.59-1.6-1.47-.38-3.01-.77-4.26-.94zM55.82 11.68c-1.8-.1-2.6-.02-3.73.01-1.09.02-1.86.09-1.89.19-.19.89-.19 1.76-.21 2.67-.05 2.57.05 5.13-.05 7.69-.1 2.55-.3 5.1-.54 7.65-.25 2.55-.55 5.09-.85 7.64-.3 2.54-.61 5.09-.87 7.63s-.49 5.08-.62 7.63c-.13 2.54-.18 5.09-.09 7.64.03.88.14 1.76.14 2.64.11 1.47.35 3.09 1.48 4.03.89.73 2.12.86 3.27.9.61.02 1.24.02 1.81-.21.83-.35 1.37-1.18 1.61-2.04.24-.87.22-1.78.21-2.68-.03-2.25.02-4.5.11-6.75.3-6.93 1.08-13.82 1.69-20.72.23-2.56.44-5.12.59-7.68.15-2.53.24-5.07.25-7.61 0-1.3-.05-2.6-.05-3.89 0-.56.03-1.13.04-1.69v-.21c.01-.63-.06-1.27-.03-1.9 0-.12.04-.54.04-.64 0 0-1.42-.26-2.31-.3zM122.59 21.68c-.32-2.64-.68-5.27-1.06-7.92-.52-3.09-1.67-5.41-3.47-6.94-.72-.58-1.51-.87-2.41-.87-1.23 0-2.04.45-2.42 1.35-1.67 4.05-3.56 9.89-5.7 17.48-2.5 8.76-4.33 14.74-5.5 17.96-.13.45-.72.8-1.78 1.02-1.07.23-1.75.52-2.04.86-.29.36-.44.69-.44 1.02 0 .38.46.93 1.35 1.64.91.7 1.33 1.35 1.26 1.92-.17 1.82-1.08 4.78-2.7 8.84a71.121 71.121 0 0 0-4.35-4.2c-7.02-6.37-10.56-9.59-10.63-9.66-1.03-.83-2.05-1.67-3.09-2.5-1.35-1.15-2.03-2.16-2.03-2.99 0-.77.58-1.47 1.74-2.12 2.84-1.55 5.22-3.67 7.16-6.37 2.25-3.02 3.38-6.06 3.38-9.08 0-3.6-1.21-6.96-3.58-10.04C83.71 7.74 80.67 6 77.2 5.87c-6.89-.32-10.65 1.51-11.29 5.5-.97 5.99-1.46 13.36-1.46 22.1V44c-.07 5.15-.23 9.59-.48 13.32-.07.46-.23 1.62-.49 3.49-.25 1.6-.38 2.89-.38 3.86 0 3.29 1.42 5.25 4.25 5.9.45.13 1.02.03 1.7-.29.66-.32 1.07-.48 1.19-.48.83-3.17 1.42-7.41 1.74-12.75.52-7.09.87-11.46 1.07-13.13 2.76 2.39 6.98 6.63 12.64 12.75 3.59 3.86 6.76 7 9.52 9.45-.17 1.11-.22 2.11-.14 3 .12 1.22 1.25 2.17 3.37 2.89 1.68.52 2.77.2 3.29-.97 1.03-2.45 2.09-6.02 3.19-10.72 1.15-5.08 2.08-8.63 2.8-10.61 1.42-1.22 3.38-2 5.88-2.32 2.2-.2 4.39-.38 6.57-.58 1.22 3.29 2.28 7.38 3.18 12.27.85 4.51 2.84 7.05 5.99 7.62.38.07 1.13-.38 2.23-1.35 1.1-.97 1.64-2.09 1.64-3.38 0-.77-.2-1.67-.58-2.7-3.46-9.88-6.82-22.41-10.04-37.59zm-49.23 4.53c-.2-3.47-.29-5.63-.29-6.47 0-2.05.15-3.9.48-5.5.38-.97 1.35-1.46 2.9-1.46 2.05 0 3.55.56 4.49 1.64.93 1.1 1.48 2.32 1.68 3.67.07.9 0 1.93-.2 3.09-.7 3.67-3.72 7.5-9.06 11.49.12-1.66.12-3.82 0-6.46zm37.07 14.87c1.42-5.34 3.09-10.68 5.02-16.02.58 2.57 1.19 5.15 1.83 7.73.65 2.96 1.06 5.63 1.26 8.02-4.37-.01-7.08.08-8.11.27zM161.12 47.55c-.38 0-.98.07-1.79.19-.81.13-1.36.2-1.7.2-1.4.7-3.7 2.16-6.85 4.35-2.9 1.93-5.25 3.29-7.05 4.05-.13-5.27.13-13.19.78-23.71.64-10.52.86-18.42.68-23.71-.4-1.8-1.82-2.7-4.25-2.7-1.3 0-2.36.42-3.19 1.26.27 2.9.38 6 .38 9.29 0 4.77-.48 12.54-1.44 23.3-.83 10.12-1.19 18.04-1.06 23.69.07.08.68.87 1.84 2.42.77 1.15 1.6 1.74 2.5 1.74.38 0 .77-.09 1.17-.29 3.34-1.48 7.17-3.78 11.49-6.89 7.39-5.3 11.16-7.98 11.29-8.04.77-.97.77-2.17 0-3.59-.58-1.04-1.51-1.56-2.8-1.56zM197.8 1.42c-1.91-1.04-3.98-1.51-6.24-1.4-5.24.23-10.17 2.81-14.79 7.74-7.95 8.49-11.67 18.53-11.17 30.13.11 2.18.36 4.4.78 6.68.72 4.09 1.09 8.11 2.8 11.94 1.57 3.51 3.85 6.7 6.26 9.62 4.77 5.77 9.13 9.49 13.07 11.16 2.22.63 3.85.99 4.9 1.07.96.16 1.86-.21 2.67-1.1.8-.9 1.19-1.87 1.14-2.91-.04-1.06-.72-1.83-2.03-2.37-1.23-.35-2.46-.72-3.69-1.12-2.95-1.26-5.52-3.45-7.67-6.57-.86-1.28-2.31-3.97-4.34-8.08-2.49-5.01-3.85-10.4-4.1-16.18-.53-12.25 3.55-22.45 12.24-30.57.84-.83 3.15-1.62 6.91-2.38 2.89-.57 4.29-1.76 4.21-3.53-.07-1.12-.39-1.84-.95-2.13zM227.12 7.2c-1.36 0-2.18 1.14-2.45 3.41-1.23 10.84-2.66 19.67-4.28 26.48-.39 0-1.52.07-3.41.2-1.43.05-2.53.03-3.31-.11-1.16-.12-2.14-.48-2.91-1.07 0-1.62.2-3.98.63-7.06.41-3.09.63-5.35.63-6.77 0-2-.25-3.82-.78-5.45-.61-2.06-5.01-2.68-6.76-2.34-1.02.2-1.51.65-1.51 1.36.05 5.13-.47 12.05-1.56 20.75-1.3 10.38-2.04 17.32-2.23 20.83 0 .19-.05.73-.16 1.6-.09.88-.13 1.58-.13 2.1 0 2.34.73 3.89 2.23 4.68 2.08 1.1 4.22 1.19 6.43.29.25-10.01 1.18-17.56 2.73-22.7.78-.25 1.59-.39 2.45-.39.71 0 1.86.16 3.45.49 1.59.32 2.83.45 3.75.39 0 1.43-.16 3.47-.49 6.13-.32 2.66-.49 4.65-.49 5.93 0 .79-.04 2-.13 3.66s-.15 2.87-.15 3.65c0 3.96 1.23 6.65 3.7 8.08.57.32 1.78.48 3.61.48.51 0 .96-.21 1.35-.63.39-.43.59-.87.59-1.32-.13-1.82-.2-3.73-.2-5.75 0-6.35.82-15.47 2.45-27.35 1.75-12.52 2.69-21.69 2.82-27.46-.49-1.72-2.44-2.44-5.87-2.11zM264.11 21.23c-.32-2.66-.68-5.33-1.07-7.99-.52-3.11-1.68-5.45-3.5-7-.72-.59-1.52-.88-2.43-.88-1.24 0-2.04.45-2.45 1.36-1.68 4.09-3.59 9.97-5.73 17.63-2.54 8.83-4.38 14.86-5.56 18.11-.13.45-.72.8-1.8 1.03-1.07.23-1.75.52-2.04.87-.28.36-.43.71-.43 1.03 0 .39.45.94 1.35 1.64.92.72 1.34 1.36 1.27 1.95-.2 2.02-1.27 5.4-3.21 10.13-1.62 4.16-2.34 7.47-2.15 9.93.13 1.24 1.27 2.2 3.42 2.93 1.68.52 2.78.19 3.31-.98 1.03-2.47 2.1-6.07 3.21-10.81 1.16-5.12 2.11-8.7 2.82-10.7 1.43-1.24 3.41-2.02 5.95-2.34 2.2-.2 4.41-.39 6.61-.59 1.23 3.31 2.3 7.43 3.21 12.36.86 4.56 2.86 7.11 6.04 7.7.39.07 1.14-.39 2.24-1.36 1.1-.98 1.66-2.11 1.66-3.41 0-.78-.2-1.68-.59-2.73-3.5-9.94-6.88-22.57-10.13-37.88zm-12.27 19.56c1.43-5.39 3.11-10.77 5.06-16.16.59 2.59 1.2 5.18 1.84 7.79.65 2.98 1.08 5.68 1.27 8.07-4.4 0-7.12.1-8.17.3zM326.72 30.95c-.07-1.68-.07-3.89 0-6.61.13-3.25.19-5.36.19-6.33 0-3.05-.23-5.75-.68-8.07-.32-1.56-1.68-2.34-4.09-2.34-1.68 0-2.66.52-2.91 1.55-1.7 10.06-5.65 23.76-11.88 41.09-1.88-2.66-3.18-6.07-3.9-10.22-.52-3.7-1.07-7.36-1.64-11 0-2.15-.31-5.31-.94-9.5-.61-4.18-.92-7.22-.92-9.1-.84-.84-2.37-1.27-4.57-1.27-.86 0-1.53.43-1.75 1.36-.32 1.36-.5 4.73-.62 4.85-1.5 11.76-3.29 17.16-4.65 21.83-3.96 13.43-6.23 20.93-6.82 22.49-1.36 3.57-2.04 5.65-2.04 6.23 0 1.7.94 2.99 2.82 3.89 2.27 1.11 3.63 1.18 4.09.2 3.18-6.68 6.17-16.81 8.97-30.37.71 1.5 1.58 4.41 2.62 8.77.98 3.96 2.02 6.84 3.13 8.66 1.68 2.79 4.08 4.54 7.2 5.26 1.55.19 2.86-.72 3.89-2.73.27-.45.98-2.29 2.14-5.45 1.95-5.79 3.34-10.13 4.2-13.06.32 1.75.55 4.97.68 9.65.13 4.16.52 7.36 1.16 9.63.72 2.47 1.7 4.25 2.93 5.36 1.5 1.3 2.95 1.91 4.38 1.84 2.14-.13 3.09-.84 2.82-2.14-1.96-9.28-3.22-20.77-3.81-34.47zM360.45 7.65c-1.82-.99-5.59-2.35-6.48.42-4.87 15.11-9.84 30.61-10.17 46.63-.06 3.07.15 6.13.6 9.39.09.66.36 1.29.76 1.82.6.82 1.41 1.42 2.38 1.7 1.02.29 2.09.34 3.14.39.4.02 1.08.06 1.31-.36.48-.86.53-2.66.69-4.38 1.39-15.04 5.03-29.78 9.12-44.32.97-3.43 2.68-9.09-1.35-11.29zM349.27 72.36c-2.42-1-6.49-1.45-7.59 1.65-.41 1.15-.47 2.53-.3 3.55.23 1.45 1.58 2.24 2.86 2.71 1.74.63 3.66.7 5.48.47.75-.09 1.56-.27 2.05-.84.32-.37.47-.86.58-1.34.45-1.87.34-3.76-1.19-5.1-.55-.48-1.22-.82-1.89-1.1z"/></svg>